<svg width="24" height="20" viewBox="0 0 24 20" fill="none" xmlns="http://www.w3.org/2000/svg">
<path d="M24 10C24 10.2652 23.8946 10.5196 23.7071 10.7071C23.5196 10.8947 23.2652 11 23 11H3.41374L10.7075 18.2925C10.8004 18.3854 10.8741 18.4957 10.9244 18.6171C10.9747 18.7385 11.0005 18.8686 11.0005 19C11.0005 19.1314 10.9747 19.2615 10.9244 19.3829C10.8741 19.5043 10.8004 19.6146 10.7075 19.7075C10.6146 19.8004 10.5043 19.8741 10.3829 19.9244C10.2615 19.9747 10.1314 20.0006 9.99999 20.0006C9.8686 20.0006 9.73849 19.9747 9.6171 19.9244C9.4957 19.8741 9.3854 19.8004 9.29249 19.7075L0.292493 10.7075C0.199517 10.6146 0.125758 10.5043 0.0754335 10.3829C0.0251092 10.2615 -0.000793457 10.1314 -0.000793457 10C-0.000793457 9.86859 0.0251092 9.73846 0.0754335 9.61707C0.125758 9.49567 0.199517 9.38538 0.292493 9.29251L9.29249 0.292507C9.48013 0.104866 9.73463 -0.000549318 9.99999 -0.000549316C10.2654 -0.000549314 10.5199 0.104866 10.7075 0.292507C10.8951 0.480147 11.0005 0.734643 11.0005 1.00001C11.0005 1.26537 10.8951 1.51987 10.7075 1.70751L3.41374 9.00001H23C23.2652 9.00001 23.5196 9.10536 23.7071 9.2929C23.8946 9.48044 24 9.73479 24 10Z" fill="black"/>
</svg>
