<svg width="48" height="48" viewBox="0 0 48 48" fill="none" xmlns="http://www.w3.org/2000/svg">
<g clip-path="url(#clip0_2021_108)">
<g filter="url(#filter0_d_2021_108)">
<path d="M45.901 46.218H31.8303C29.7753 46.218 27.8079 45.3852 26.3774 43.9097L10.2692 27.2949L21.6922 18.0641L46.5669 44.6843C47.1111 45.2668 46.6981 46.218 45.901 46.218Z" fill="url(#paint0_linear_2021_108)"/>
<path d="M14.204 1.33334H3.15339C1.47557 1.33334 0.115417 2.69349 0.115417 4.37132V43.3333L15.1154 29.5106V2.24474C15.1154 1.74139 14.7074 1.33334 14.204 1.33334Z" fill="url(#paint1_linear_2021_108)"/>
<g filter="url(#filter1_d_2021_108)">
<path d="M43.9057 3.00457L1.55584 45.3544C0.981699 45.9286 0 45.5219 0 44.71V30.0947C0 28.0804 0.800177 26.1486 2.2245 24.7242L23.2755 3.67324C24.6998 2.24891 26.6316 1.44873 28.6459 1.44873H43.2612C44.0732 1.44873 44.4798 2.43043 43.9057 3.00457Z" fill="url(#paint2_linear_2021_108)"/>
</g>
</g>
</g>
<defs>
<filter id="filter0_d_2021_108" x="-0.607595" y="1.33334" width="49.2152" height="46.7921" filterUnits="userSpaceOnUse" color-interpolation-filters="sRGB">
<feFlood flood-opacity="0" result="BackgroundImageFix"/>
<feColorMatrix in="SourceAlpha" type="matrix" values="0 0 0 0 0 0 0 0 0 0 0 0 0 0 0 0 0 0 127 0" result="hardAlpha"/>
<feOffset dy="0.607595"/>
<feGaussianBlur stdDeviation="0.303797"/>
<feComposite in2="hardAlpha" operator="out"/>
<feColorMatrix type="matrix" values="0 0 0 0 0 0 0 0 0 0 0 0 0 0 0 0 0 0 0.25 0"/>
<feBlend mode="normal" in2="BackgroundImageFix" result="effect1_dropShadow_2021_108"/>
<feBlend mode="normal" in="SourceGraphic" in2="effect1_dropShadow_2021_108" result="shape"/>
</filter>
<filter id="filter1_d_2021_108" x="-0.303797" y="1.44873" width="45.3896" height="45.3897" filterUnits="userSpaceOnUse" color-interpolation-filters="sRGB">
<feFlood flood-opacity="0" result="BackgroundImageFix"/>
<feColorMatrix in="SourceAlpha" type="matrix" values="0 0 0 0 0 0 0 0 0 0 0 0 0 0 0 0 0 0 127 0" result="hardAlpha"/>
<feOffset dx="0.303797" dy="0.607595"/>
<feGaussianBlur stdDeviation="0.303797"/>
<feComposite in2="hardAlpha" operator="out"/>
<feColorMatrix type="matrix" values="0 0 0 0 0 0 0 0 0 0 0 0 0 0 0 0 0 0 0.25 0"/>
<feBlend mode="normal" in2="BackgroundImageFix" result="effect1_dropShadow_2021_108"/>
<feBlend mode="normal" in="SourceGraphic" in2="effect1_dropShadow_2021_108" result="shape"/>
</filter>
<linearGradient id="paint0_linear_2021_108" x1="17.423" y1="22.7949" x2="44.544" y2="46.59" gradientUnits="userSpaceOnUse">
<stop stop-color="#655CE4"/>
<stop offset="1" stop-color="#13C2C2"/>
</linearGradient>
<linearGradient id="paint1_linear_2021_108" x1="9.00003" y1="28.3333" x2="10.2265" y2="1.39444" gradientUnits="userSpaceOnUse">
<stop stop-color="#655CE4"/>
<stop offset="1" stop-color="#13C2C2"/>
</linearGradient>
<linearGradient id="paint2_linear_2021_108" x1="1.56227e-06" y1="37.5641" x2="36.7666" y2="2.11995" gradientUnits="userSpaceOnUse">
<stop stop-color="#13C2C2"/>
<stop offset="1" stop-color="#655CE4"/>
</linearGradient>
<clipPath id="clip0_2021_108">
<rect width="48" height="48" fill="white"/>
</clipPath>
</defs>
</svg>
